<svg xmlns="http://www.w3.org/2000/svg" viewBox="0 0 192 192" width="192" height="192">
  <rect width="192" height="192" rx="40" fill="#047857" />
  <circle cx="96" cy="96" r="70" fill="#065f46" />
  <!-- Stylized Chicken / Poultry Icon -->
  <path d="M70 120 C70 95, 85 75, 110 75 C115 75, 122 78, 126 82 C132 80, 138 82, 142 86 C136 90, 135 94, 136 98 C140 102, 140 108, 134 112 C125 125, 105 130, 85 128 Z" fill="#ffffff" />
  <circle cx="122" cy="90" r="3.5" fill="#047857" />
  <path d="M128 92 L138 95 L128 98 Z" fill="#f59e0b" />
  <path d="M110 75 C112 68, 118 64, 124 67 C122 72, 118 74, 110 75 Z" fill="#ef4444" />
  <text x="96" y="155" text-anchor="middle" fill="#a7f3d0" font-family="system-ui, sans-serif" font-size="16" font-weight="900" letter-spacing="1">SHAMON</text>
</svg>
